<?xml version="1.0"?>
<svg width="24" height="24" xmlns="http://www.w3.org/2000/svg" xmlns:svg="http://www.w3.org/2000/svg">
 <metadata id="metadata3344">image/svg+xml</metadata>

 <g>
  <title>Layer 1</title>
  <path fill="#bfbfbf" id="path3338" d="m4,4l3,0l2,-2l6,0l2,2l3,0a2,2 0 0 1 2,2l0,12a2,2 0 0 1 -2,2l-16,0a2,2 0 0 1 -2,-2l0,-12a2,2 0 0 1 2,-2m8,3a5,5 0 0 0 -5,5a5,5 0 0 0 5,5a5,5 0 0 0 5,-5a5,5 0 0 0 -5,-5m0,2a3,3 0 0 1 3,3a3,3 0 0 1 -3,3a3,3 0 0 1 -3,-3a3,3 0 0 1 3,-3z"/>
  <path opacity="0.99" fill="#890000" d="m12.11392,6.82911a1.30651,1.30651 0 0 1 -1.30651,-1.30651a1.30651,1.30651 0 0 1 1.30651,-1.30651a1.30651,1.30651 0 0 1 1.30651,1.30651a1.30651,1.30651 0 0 1 -1.30651,1.30651m0,-4.96473a3.65823,3.65823 0 0 0 -3.65822,3.65822c0,2.74367 3.65822,6.79386 3.65822,6.79386c0,0 3.65823,-4.05019 3.65823,-6.79386a3.65823,3.65823 0 0 0 -3.65823,-3.65822z" id="path3348"/>
 </g>
</svg>