<?xml version="1.0" encoding="UTF-8" standalone="no"?>
<svg
   xmlns:dc="http://purl.org/dc/elements/1.1/"
   xmlns:cc="http://creativecommons.org/ns#"
   xmlns:rdf="http://www.w3.org/1999/02/22-rdf-syntax-ns#"
   xmlns:svg="http://www.w3.org/2000/svg"
   xmlns="http://www.w3.org/2000/svg"
   xmlns:sodipodi="http://sodipodi.sourceforge.net/DTD/sodipodi-0.dtd"
   xmlns:inkscape="http://www.inkscape.org/namespaces/inkscape"
   version="1.1"
   width="24"
   height="24"
   viewBox="0 0 24 24"
   id="svg3336"
   inkscape:version="0.91 r13725"
   sodipodi:docname="picalocGreenBlue.svg">
  <metadata
     id="metadata3344">
    <rdf:RDF>
      <cc:Work
         rdf:about="">
        <dc:format>image/svg+xml</dc:format>
        <dc:type
           rdf:resource="http://purl.org/dc/dcmitype/StillImage" />
        <dc:title></dc:title>
      </cc:Work>
    </rdf:RDF>
  </metadata>
  <defs
     id="defs3342" />
  <sodipodi:namedview
     pagecolor="#ffffff"
     bordercolor="#666666"
     borderopacity="1"
     objecttolerance="10"
     gridtolerance="10"
     guidetolerance="10"
     inkscape:pageopacity="0"
     inkscape:pageshadow="2"
     inkscape:window-width="1536"
     inkscape:window-height="801"
     id="namedview3340"
     showgrid="false"
     inkscape:zoom="26.333333"
     inkscape:cx="6.2810369"
     inkscape:cy="14.232911"
     inkscape:window-x="-8"
     inkscape:window-y="-8"
     inkscape:window-maximized="1"
     inkscape:current-layer="svg3336" />
  <path
     d="m 4,3.8659886 3,0 2,-2.0167514 6,0 2,2.0167514 3,0 A 2,2.0167514 0 0 1 22,5.88274 l 0,12.100509 A 2,2.0167514 0 0 1 20,20 L 4,20 A 2,2.0167514 0 0 1 2,17.983249 L 2,5.88274 A 2,2.0167514 0 0 1 4,3.8659886 m 8,3.0251272 a 5,5.0418786 0 0 0 -5,5.0418782 5,5.0418786 0 0 0 5,5.041879 5,5.0418786 0 0 0 5,-5.041879 5,5.0418786 0 0 0 -5,-5.0418782 m 0,2.0167514 a 3,3.0251271 0 0 1 3,3.0251268 3,3.0251271 0 0 1 -3,3.025127 3,3.0251271 0 0 1 -3,-3.025127 3,3.0251271 0 0 1 3,-3.0251268 z"
     id="path3338"
     style="fill:#ffd750;fill-opacity:1"
     inkscape:connector-curvature="0"
     inkscape:export-xdpi="898"
     inkscape:export-ydpi="898" />
  <path
     id="path3348"
     d="M 12.037974,5.9431656 A 1.4692586,1.4930857 0 0 1 10.568715,4.45008 1.4692586,1.4930857 0 0 1 12.037974,2.9569941 1.4692586,1.4930857 0 0 1 13.507232,4.45008 1.4692586,1.4930857 0 0 1 12.037974,5.9431656 m 0,-5.67372579 A 4.1139241,4.1806403 0 0 0 7.924051,4.45008 c 0,3.1354799 4.113923,7.764045 4.113923,7.764045 0,0 4.113924,-4.6285651 4.113924,-7.764045 A 4.1139241,4.1806403 0 0 0 12.037974,0.26943981 Z"
     inkscape:connector-curvature="0"
     style="opacity:0.98999999;fill:#3498db;fill-opacity:1"
     inkscape:export-xdpi="898"
     inkscape:export-ydpi="898" />
  <path
     style="opacity:0.98999999;fill:#1abc9c;fill-opacity:1"
     d="M 11.244328,16.903713 C 9.6358296,16.636365 8.2687996,15.630978 7.5364609,14.176747 7.3548014,13.816019 7.1611019,13.213284 7.0892243,12.78508 7.0130362,12.331197 7.0117904,11.526964 7.0865951,11.087886 7.2123155,10.34995 7.5337391,9.5794048 7.9666449,8.9781514 8.2118927,8.6375322 8.9571861,7.8971575 9.0051159,7.9465341 c 0.017056,0.017571 0.1030209,0.1601115 0.1910331,0.316757 0.088012,0.1566456 0.3130327,0.5288826 0.5000455,0.8271933 l 0.3400235,0.5423832 -0.093669,0.07368 C 9.7795733,9.8347442 9.431338,10.32219 9.2915981,10.617722 c -0.3622617,0.766137 -0.3903797,1.670561 -0.076575,2.463067 0.3447815,0.870739 1.1186062,1.548698 2.0482922,1.794539 0.421013,0.11133 1.060927,0.111452 1.476386,2.66e-4 0.835854,-0.223663 1.502938,-0.754018 1.916533,-1.52371 0.211985,-0.3945 0.311226,-0.770286 0.336481,-1.274118 0.04332,-0.864283 -0.2376,-1.632616 -0.813763,-2.2256767 L 14.006986,9.675079 14.329634,9.168545 c 0.177456,-0.2785938 0.41213,-0.6644563 0.521497,-0.8574722 l 0.198849,-0.3509381 0.100339,0.072851 c 0.195305,0.1418021 0.685266,0.6710655 0.898707,0.970797 0.386742,0.5430936 0.691899,1.240807 0.838749,1.917722 0.08787,0.40504 0.09926,1.511171 0.01976,1.917721 -0.400232,2.046474 -1.925462,3.606803 -3.935355,4.025919 -0.416724,0.0869 -1.31623,0.106969 -1.727848,0.03855 l 0,1.4e-5 z"
     id="path4144"
     inkscape:connector-curvature="0"
     inkscape:export-xdpi="898"
     inkscape:export-ydpi="898" />
</svg>
